<?xml version="1.0" encoding="UTF-8" standalone="no"?>
<!DOCTYPE svg PUBLIC "-//W3C//DTD SVG 1.1//EN" "http://www.w3.org/Graphics/SVG/1.1/DTD/svg11.dtd">
<svg width="100%" height="100%" viewBox="0 0 1016 230" version="1.1" xmlns="http://www.w3.org/2000/svg" xmlns:xlink="http://www.w3.org/1999/xlink" xml:space="preserve" xmlns:serif="http://www.serif.com/" style="fill-rule:evenodd;clip-rule:evenodd;stroke-linejoin:round;stroke-miterlimit:2;">
    <path d="M1016,21.957C1016,9.839 1006.16,0 994.043,0L21.957,0C9.839,0 0,9.839 0,21.957L0,208.043C0,220.161 9.839,230 21.957,230L994.043,230C1006.16,230 1016,220.161 1016,208.043L1016,21.957Z" style="fill:rgb(31,31,31);"/>
    <path d="M137.25,62.98L90.45,167.98L82.8,167.98L36,62.98L44.4,62.98L86.85,158.08L129.3,62.98L137.25,62.98ZM150.756,89.68L158.256,89.68L158.256,167.98L150.756,167.98L150.756,89.68ZM154.506,70.63C152.806,70.63 151.356,70.08 150.156,68.98C148.956,67.78 148.356,66.33 148.356,64.63C148.356,62.93 148.956,61.48 150.156,60.28C151.356,59.08 152.806,58.48 154.506,58.48C156.206,58.48 157.656,59.08 158.856,60.28C160.056,61.38 160.656,62.78 160.656,64.48C160.656,66.18 160.056,67.63 158.856,68.83C157.656,70.03 156.206,70.63 154.506,70.63ZM228.117,89.08C237.917,89.08 245.667,91.93 251.367,97.63C257.067,103.33 259.917,111.53 259.917,122.23L259.917,167.98L252.417,167.98L252.417,122.83C252.417,114.03 250.167,107.33 245.667,102.73C241.267,98.13 235.067,95.83 227.067,95.83C217.867,95.83 210.617,98.58 205.317,104.08C200.017,109.58 197.367,116.98 197.367,126.28L197.367,167.98L189.867,167.98L189.867,89.68L197.067,89.68L197.067,106.63C199.767,101.13 203.767,96.83 209.067,93.73C214.467,90.63 220.817,89.08 228.117,89.08ZM357.091,130.63L289.741,130.63C289.941,136.73 291.491,142.18 294.391,146.98C297.291,151.68 301.191,155.33 306.091,157.93C311.091,160.53 316.691,161.83 322.891,161.83C327.991,161.83 332.691,160.93 336.991,159.13C341.391,157.23 345.041,154.48 347.941,150.88L352.291,155.83C348.891,159.93 344.591,163.08 339.391,165.28C334.291,167.48 328.741,168.58 322.741,168.58C314.941,168.58 307.991,166.88 301.891,163.48C295.791,160.08 290.991,155.38 287.491,149.38C284.091,143.38 282.391,136.53 282.391,128.83C282.391,121.23 283.991,114.43 287.191,108.43C290.491,102.33 294.991,97.58 300.691,94.18C306.391,90.78 312.791,89.08 319.891,89.08C326.991,89.08 333.341,90.78 338.941,94.18C344.641,97.48 349.091,102.13 352.291,108.13C355.591,114.13 357.241,120.93 357.241,128.53L357.091,130.63ZM319.891,95.68C314.391,95.68 309.441,96.93 305.041,99.43C300.641,101.83 297.091,105.28 294.391,109.78C291.791,114.18 290.291,119.18 289.891,124.78L349.891,124.78C349.591,119.18 348.091,114.18 345.391,109.78C342.691,105.38 339.141,101.93 334.741,99.43C330.341,96.93 325.391,95.68 319.891,95.68ZM390.493,69.88L390.493,114.73L446.443,114.73L446.443,121.63L390.493,121.63L390.493,167.98L382.843,167.98L382.843,62.98L453.043,62.98L453.043,69.88L390.493,69.88ZM559.323,106.78C561.723,101.08 565.473,96.73 570.573,93.73C575.673,90.63 581.873,89.08 589.173,89.08L589.173,96.43L587.373,96.28C578.673,96.28 571.873,99.03 566.973,104.53C562.073,109.93 559.623,117.48 559.623,127.18L559.623,167.98L552.123,167.98L552.123,89.68L559.323,89.68L559.323,106.78ZM675.255,130.63L607.905,130.63C608.105,136.73 609.655,142.18 612.555,146.98C615.455,151.68 619.355,155.33 624.255,157.93C629.255,160.53 634.855,161.83 641.055,161.83C646.155,161.83 650.855,160.93 655.155,159.13C659.555,157.23 663.205,154.48 666.105,150.88L670.455,155.83C667.055,159.93 662.755,163.08 657.555,165.28C652.455,167.48 646.905,168.58 640.905,168.58C633.105,168.58 626.155,166.88 620.055,163.48C613.955,160.08 609.155,155.38 605.655,149.38C602.255,143.38 600.555,136.53 600.555,128.83C600.555,121.23 602.155,114.43 605.355,108.43C608.655,102.33 613.155,97.58 618.855,94.18C624.555,90.78 630.955,89.08 638.055,89.08C645.155,89.08 651.505,90.78 657.105,94.18C662.805,97.48 667.255,102.13 670.455,108.13C673.755,114.13 675.405,120.93 675.405,128.53L675.255,130.63ZM638.055,95.68C632.555,95.68 627.605,96.93 623.205,99.43C618.805,101.83 615.255,105.28 612.555,109.78C609.955,114.18 608.455,119.18 608.055,124.78L668.055,124.78C667.755,119.18 666.255,114.18 663.555,109.78C660.855,105.38 657.305,101.93 652.905,99.43C648.505,96.93 643.555,95.68 638.055,95.68ZM729.657,168.58C722.057,168.58 715.257,166.88 709.257,163.48C703.257,160.08 698.557,155.38 695.157,149.38C691.757,143.28 690.057,136.43 690.057,128.83C690.057,121.13 691.757,114.28 695.157,108.28C698.557,102.18 703.257,97.48 709.257,94.18C715.257,90.78 722.057,89.08 729.657,89.08C735.957,89.08 741.657,90.33 746.757,92.83C751.957,95.23 756.157,98.78 759.357,103.48L753.807,107.53C751.007,103.63 747.507,100.73 743.307,98.83C739.207,96.83 734.657,95.83 729.657,95.83C723.557,95.83 718.057,97.23 713.157,100.03C708.357,102.73 704.557,106.58 701.757,111.58C699.057,116.58 697.707,122.33 697.707,128.83C697.707,135.33 699.057,141.08 701.757,146.08C704.557,151.08 708.357,154.98 713.157,157.78C718.057,160.48 723.557,161.83 729.657,161.83C734.657,161.83 739.207,160.88 743.307,158.98C747.507,156.98 751.007,154.03 753.807,150.13L759.357,154.18C756.157,158.88 751.957,162.48 746.757,164.98C741.657,167.38 735.957,168.58 729.657,168.58ZM808.211,89.08C817.911,89.08 825.361,91.58 830.561,96.58C835.761,101.48 838.361,108.73 838.361,118.33L838.361,167.98L831.161,167.98L831.161,154.03C828.661,158.63 825.011,162.23 820.211,164.83C815.411,167.33 809.661,168.58 802.961,168.58C794.261,168.58 787.361,166.53 782.261,162.43C777.261,158.33 774.761,152.93 774.761,146.23C774.761,139.73 777.061,134.48 781.661,130.48C786.361,126.38 793.811,124.33 804.011,124.33L830.861,124.33L830.861,118.03C830.861,110.73 828.861,105.18 824.861,101.38C820.961,97.58 815.211,95.68 807.611,95.68C802.411,95.68 797.411,96.58 792.611,98.38C787.911,100.18 783.911,102.58 780.611,105.58L776.861,100.18C780.761,96.68 785.461,93.98 790.961,92.08C796.461,90.08 802.211,89.08 808.211,89.08ZM804.011,162.43C810.511,162.43 816.011,160.93 820.511,157.93C825.111,154.93 828.561,150.58 830.861,144.88L830.861,130.18L804.161,130.18C796.461,130.18 790.861,131.58 787.361,134.38C783.961,137.18 782.261,141.03 782.261,145.93C782.261,151.03 784.161,155.08 787.961,158.08C791.761,160.98 797.111,162.43 804.011,162.43ZM889.062,168.58C882.762,168.58 876.762,167.63 871.062,165.73C865.362,163.83 860.912,161.43 857.712,158.53L861.162,152.53C864.362,155.23 868.462,157.48 873.462,159.28C878.562,161.08 883.862,161.98 889.362,161.98C897.262,161.98 903.062,160.68 906.762,158.08C910.562,155.48 912.462,151.88 912.462,147.28C912.462,143.98 911.412,141.38 909.312,139.48C907.312,137.58 904.812,136.18 901.812,135.28C898.812,134.38 894.662,133.43 889.362,132.43C883.162,131.33 878.162,130.13 874.362,128.83C870.562,127.53 867.312,125.43 864.612,122.53C861.912,119.63 860.562,115.63 860.562,110.53C860.562,104.33 863.112,99.23 868.212,95.23C873.412,91.13 880.762,89.08 890.262,89.08C895.262,89.08 900.212,89.78 905.112,91.18C910.012,92.58 914.012,94.43 917.112,96.73L913.662,102.73C910.462,100.43 906.812,98.68 902.712,97.48C898.612,96.28 894.412,95.68 890.112,95.68C882.812,95.68 877.312,97.03 873.612,99.73C869.912,102.43 868.062,105.98 868.062,110.38C868.062,113.88 869.112,116.63 871.212,118.63C873.312,120.53 875.862,121.98 878.862,122.98C881.962,123.88 886.262,124.88 891.762,125.98C897.862,127.08 902.762,128.28 906.462,129.58C910.262,130.78 913.462,132.78 916.062,135.58C918.662,138.38 919.962,142.23 919.962,147.13C919.962,153.63 917.262,158.83 911.862,162.73C906.462,166.63 898.862,168.58 889.062,168.58ZM979.743,163.03C977.843,164.83 975.443,166.23 972.543,167.23C969.743,168.13 966.793,168.58 963.693,168.58C956.893,168.58 951.643,166.73 947.943,163.03C944.243,159.23 942.393,153.98 942.393,147.28L942.393,96.13L927.993,96.13L927.993,89.68L942.393,89.68L942.393,72.58L949.893,72.58L949.893,89.68L974.793,89.68L974.793,96.13L949.893,96.13L949.893,146.53C949.893,151.63 951.093,155.53 953.493,158.23C955.993,160.83 959.643,162.13 964.443,162.13C969.343,162.13 973.393,160.68 976.593,157.78L979.743,163.03Z" style="fill:white;fill-rule:nonzero;"/>
    <path d="M535.715,128.783C535.715,148.951 519.366,165.3 499.198,165.3C479.031,165.3 462.682,148.951 462.682,128.783C462.682,124.371 464.598,118.568 467.871,112.015C471.103,105.543 475.489,98.67 480.054,92.216C487.587,81.567 495.488,72.228 499.198,67.969C502.909,72.228 510.81,81.567 518.342,92.216C522.907,98.67 527.293,105.543 530.526,112.015C533.799,118.568 535.715,124.371 535.715,128.783ZM538.632,128.783C538.632,150.562 520.977,168.217 499.198,168.217C477.42,168.217 459.765,150.562 459.765,128.783C459.765,108.338 494.518,68.804 498.773,64.04C499.002,63.783 499.394,63.783 499.623,64.04C503.879,68.804 538.632,108.338 538.632,128.783ZM522.508,142.466C522.848,141.918 522.68,141.199 522.132,140.859C521.585,140.519 520.866,140.687 520.526,141.234C518.505,144.486 517.017,146.41 515.345,147.881C513.671,149.354 511.751,150.425 508.756,151.884C508.177,152.167 507.936,152.865 508.218,153.444C508.5,154.023 509.198,154.264 509.778,153.982C512.796,152.512 514.96,151.327 516.886,149.633C518.814,147.937 520.445,145.785 522.508,142.466Z" style="fill:white;"/>
</svg>
